<svg style="left: 0px; top: 0px; width: 100%; height: 100%; display: block; min-width: 1331px; min-height: 541px;"><g><g></g><g><g transform="translate(0.5,0.5)" style="visibility: visible; cursor: move;"><rect x="670" y="30" width="150" height="50" fill="transparent" stroke="#000000" pointer-events="all"></rect></g><g style="cursor: move;"><g fill="#774400" font-family="Arial,Helvetica" text-anchor="middle" font-size="11px"><text x="745" y="59.5">Mobile Phone</text></g></g><g transform="translate(0.5,0.5)" style="visibility: visible; cursor: move;"><rect x="120" y="230" width="150" height="50" fill="transparent" stroke="#000000" pointer-events="all"></rect></g><g style="cursor: move;"><g fill="#774400" font-family="Arial,Helvetica" text-anchor="middle" font-size="11px"><text x="195" y="259.5">Calls</text></g></g><g transform="translate(0.5,0.5)" style="visibility: visible; cursor: move;"><rect x="390" y="230" width="150" height="50" fill="transparent" stroke="#000000" pointer-events="all"></rect></g><g style="cursor: move;"><g fill="#774400" font-family="Arial,Helvetica" text-anchor="middle" font-size="11px"><text x="465" y="259.5">GPS</text></g></g><g transform="translate(0.5,0.5)" style="visibility: visible; cursor: move;"><rect x="660" y="230" width="150" height="50" fill="transparent" stroke="#000000" pointer-events="all"></rect></g><g style="cursor: move;"><g fill="#774400" font-family="Arial,Helvetica" text-anchor="middle" font-size="11px"><text x="735" y="259.5">Screen</text></g></g><g transform="translate(0.5,0.5)" style="visibility: visible;"><rect x="1080" y="230" width="150" height="50" fill="transparent" stroke="#000000" pointer-events="all"></rect></g><g style=""><g fill="#774400" font-family="Arial,Helvetica" text-anchor="middle" font-size="11px"><text x="1155" y="259.5">Media</text></g></g><g transform="translate(0.5,0.5)" style="visibility: visible;"><rect x="420" y="410" width="150" height="50" fill="transparent" stroke="#000000" pointer-events="all"></rect></g><g style=""><g fill="#774400" font-family="Arial,Helvetica" text-anchor="middle" font-size="11px"><text x="495" y="439.5">Basic</text></g></g><g transform="translate(0.5,0.5)" style="visibility: visible; cursor: move;"><rect x="610" y="490" width="150" height="50" fill="transparent" stroke="#000000" pointer-events="all"></rect></g><g style="cursor: move;"><g fill="#774400" font-family="Arial,Helvetica" text-anchor="middle" font-size="11px"><text x="685" y="519.5">Colour</text></g></g><g transform="translate(0.5,0.5)" style="visibility: visible; cursor: move;"><rect x="800" y="410" width="150" height="50" fill="transparent" stroke="#000000" pointer-events="all"></rect></g><g style="cursor: move;"><g fill="#774400" font-family="Arial,Helvetica" text-anchor="middle" font-size="11px"><text x="875" y="439.5">High Resolution</text></g></g><g transform="translate(0.5,0.5)" style="visibility: visible;"><rect x="995" y="410" width="150" height="50" fill="transparent" stroke="#000000" pointer-events="all"></rect></g><g style=""><g fill="#774400" font-family="Arial,Helvetica" text-anchor="middle" font-size="11px"><text x="1070" y="439.5">Camera</text></g></g><g transform="translate(0.5,0.5)" style="visibility: visible;"><rect x="1180" y="410" width="150" height="50" fill="transparent" stroke="#000000" pointer-events="all"></rect></g><g style=""><g fill="#774400" font-family="Arial,Helvetica" text-anchor="middle" font-size="11px"><text x="1255" y="439.5">MP3</text></g></g><g transform="translate(0.5,0.5)" style="visibility: visible; cursor: move;"><path d="M 710 80 L 502.44 228.26" fill="none" stroke="white" stroke-miterlimit="10" pointer-events="stroke" visibility="hidden" stroke-width="9"></path><path d="M 710 80 L 502.44 228.26" fill="none" stroke="#6482b9" stroke-miterlimit="10" pointer-events="stroke"></path><ellipse cx="500" cy="230" rx="3" ry="3" fill="none" stroke="white" pointer-events="stroke" visibility="hidden" stroke-width="9"></ellipse><ellipse cx="500" cy="230" rx="3" ry="3" fill="none" stroke="#6482b9" pointer-events="all"></ellipse></g><g transform="translate(0.5,0.5)" style="visibility: visible; cursor: move;"><path d="M 796.25 80 L 1101.05 228.68" fill="none" stroke="white" stroke-miterlimit="10" pointer-events="stroke" visibility="hidden" stroke-width="9"></path><path d="M 796.25 80 L 1101.05 228.68" fill="none" stroke="#6482b9" stroke-miterlimit="10" pointer-events="stroke"></path><ellipse cx="1103.75" cy="230" rx="3" ry="3" fill="none" stroke="white" pointer-events="stroke" visibility="hidden" stroke-width="9"></ellipse><ellipse cx="1103.75" cy="230" rx="3" ry="3" fill="none" stroke="#6482b9" pointer-events="all"></ellipse></g><g transform="translate(0.5,0.5)" style="visibility: visible; cursor: move;"><path d="M 676.25 80 L 266.57 228.97" fill="none" stroke="white" stroke-miterlimit="10" pointer-events="stroke" visibility="hidden" stroke-width="9"></path><path d="M 676.25 80 L 266.57 228.97" fill="none" stroke="#6482b9" stroke-miterlimit="10" pointer-events="stroke"></path><ellipse cx="263.75" cy="230" rx="3" ry="3" fill="#6482b9" stroke="#6482b9" pointer-events="all"></ellipse></g><g transform="translate(0.5,0.5)" style="visibility: visible; cursor: move;"><path d="M 743.75 80 L 736.4 227" fill="none" stroke="white" stroke-miterlimit="10" pointer-events="stroke" visibility="hidden" stroke-width="9"></path><path d="M 743.75 80 L 736.4 227" fill="none" stroke="#6482b9" stroke-miterlimit="10" pointer-events="stroke"></path><ellipse cx="736.25" cy="230" rx="3" ry="3" fill="#6482b9" stroke="#6482b9" pointer-events="all"></ellipse></g><g transform="translate(0.5,0.5)" style="visibility: visible; cursor: move;"><path d="M 754.44 280 L 853.71 407.63" fill="none" stroke="white" stroke-miterlimit="10" pointer-events="stroke" visibility="hidden" stroke-width="9"></path><path d="M 754.44 280 L 853.71 407.63" fill="none" stroke="#6482b9" stroke-miterlimit="10" pointer-events="stroke"></path><ellipse cx="855.56" cy="410" rx="3" ry="3" fill="#6482b9" stroke="#6482b9" pointer-events="all"></ellipse></g><g transform="translate(0.5,0.5)" style="visibility: visible; cursor: move;"><path d="M 730.19 280 L 690.37 487.05" fill="none" stroke="white" stroke-miterlimit="10" pointer-events="stroke" visibility="hidden" stroke-width="9"></path><path d="M 730.19 280 L 690.37 487.05" fill="none" stroke="#6482b9" stroke-miterlimit="10" pointer-events="stroke"></path><ellipse cx="689.81" cy="490" rx="3" ry="3" fill="#6482b9" stroke="#6482b9" pointer-events="all"></ellipse></g><g transform="translate(0.5,0.5)" style="visibility: visible;"><path d="M 701.67 280 L 530.73 408.2" fill="none" stroke="white" stroke-miterlimit="10" pointer-events="stroke" visibility="hidden" stroke-width="9"></path><path d="M 701.67 280 L 530.73 408.2" fill="none" stroke="#6482b9" stroke-miterlimit="10" pointer-events="stroke"></path><ellipse cx="528.33" cy="410" rx="3" ry="3" fill="#6482b9" stroke="#6482b9" pointer-events="all"></ellipse></g><g transform="translate(0.5,0.5)" style="visibility: visible;"><path d="M 1143.19 280 L 1083.09 407.29" fill="none" stroke="white" stroke-miterlimit="10" pointer-events="stroke" visibility="hidden" stroke-width="9"></path><path d="M 1143.19 280 L 1083.09 407.29" fill="none" stroke="#6482b9" stroke-miterlimit="10" pointer-events="stroke"></path><ellipse cx="1081.81" cy="410" rx="3" ry="3" fill="#6482b9" stroke="#6482b9" pointer-events="all"></ellipse></g><g transform="translate(0.5,0.5)" style="visibility: visible;"><path d="M 1168.89 280 L 1239.65 407.38" fill="none" stroke="white" stroke-miterlimit="10" pointer-events="stroke" visibility="hidden" stroke-width="9"></path><path d="M 1168.89 280 L 1239.65 407.38" fill="none" stroke="#6482b9" stroke-miterlimit="10" pointer-events="stroke"></path><ellipse cx="1241.11" cy="410" rx="3" ry="3" fill="#6482b9" stroke="#6482b9" pointer-events="all"></ellipse></g><g transform="translate(0.5,0.5)" style="visibility: visible;"><path d="M 1153.12 435 L 1171.88 435" fill="none" stroke="white" stroke-miterlimit="10" pointer-events="stroke" visibility="hidden" stroke-width="9"></path><path d="M 1153.12 435 L 1171.88 435" fill="none" stroke="#6482b9" stroke-miterlimit="10" pointer-events="stroke"></path><path d="M 1146.12 435 L 1153.12 431.5 L 1153.12 438.5 Z" fill="#6482b9" stroke="#6482b9" stroke-miterlimit="10" pointer-events="all"></path><path d="M 1178.88 435 L 1171.88 438.5 L 1171.88 431.5 Z" fill="#6482b9" stroke="#6482b9" stroke-miterlimit="10" pointer-events="all"></path></g><g transform="translate(0.5,0.5)" style="visibility: visible;"><path d="M 561.86 463.15 L 618.14 486.85" fill="none" stroke="white" stroke-miterlimit="10" pointer-events="stroke" visibility="hidden" stroke-width="9"></path><path d="M 561.86 463.15 L 618.14 486.85" fill="none" stroke="#6482b9" stroke-miterlimit="10" pointer-events="stroke"></path><path d="M 555.41 460.43 L 563.22 459.92 L 560.5 466.38 Z" fill="none" stroke="white" stroke-miterlimit="10" pointer-events="stroke" visibility="hidden" stroke-width="9"></path><path d="M 555.41 460.43 L 563.22 459.92 L 560.5 466.38 Z" fill="none" stroke="#6482b9" stroke-miterlimit="10" pointer-events="all"></path><path d="M 624.59 489.57 L 616.78 490.08 L 619.5 483.62 Z" fill="none" stroke="white" stroke-miterlimit="10" pointer-events="stroke" visibility="hidden" stroke-width="9"></path><path d="M 624.59 489.57 L 616.78 490.08 L 619.5 483.62 Z" fill="none" stroke="#6482b9" stroke-miterlimit="10" pointer-events="all"></path></g><g transform="translate(0.5,0.5)" style="visibility: visible; cursor: move;"><path d="M 751.86 486.85 L 808.14 463.15" fill="none" stroke="white" stroke-miterlimit="10" pointer-events="stroke" visibility="hidden" stroke-width="9"></path><path d="M 751.86 486.85 L 808.14 463.15" fill="none" stroke="#6482b9" stroke-miterlimit="10" pointer-events="stroke"></path><path d="M 745.41 489.57 L 750.5 483.62 L 753.22 490.08 Z" fill="none" stroke="white" stroke-miterlimit="10" pointer-events="stroke" visibility="hidden" stroke-width="9"></path><path d="M 745.41 489.57 L 750.5 483.62 L 753.22 490.08 Z" fill="none" stroke="#6482b9" stroke-miterlimit="10" pointer-events="all"></path><path d="M 814.59 460.43 L 809.5 466.38 L 806.78 459.92 Z" fill="none" stroke="white" stroke-miterlimit="10" pointer-events="stroke" visibility="hidden" stroke-width="9"></path><path d="M 814.59 460.43 L 809.5 466.38 L 806.78 459.92 Z" fill="none" stroke="#6482b9" stroke-miterlimit="10" pointer-events="all"></path></g><g transform="translate(0.5,0.5)" style="visibility: visible; cursor: move;"><path d="M 791.88 435 L 578.12 435" fill="none" stroke="white" stroke-miterlimit="10" pointer-events="stroke" visibility="hidden" stroke-width="9"></path><path d="M 791.88 435 L 578.12 435" fill="none" stroke="#6482b9" stroke-miterlimit="10" pointer-events="stroke"></path><path d="M 798.88 435 L 791.88 438.5 L 791.88 431.5 Z" fill="none" stroke="white" stroke-miterlimit="10" pointer-events="stroke" visibility="hidden" stroke-width="9"></path><path d="M 798.88 435 L 791.88 438.5 L 791.88 431.5 Z" fill="none" stroke="#6482b9" stroke-miterlimit="10" pointer-events="all"></path><path d="M 571.12 435 L 578.12 431.5 L 578.12 438.5 Z" fill="none" stroke="white" stroke-miterlimit="10" pointer-events="stroke" visibility="hidden" stroke-width="9"></path><path d="M 571.12 435 L 578.12 431.5 L 578.12 438.5 Z" fill="none" stroke="#6482b9" stroke-miterlimit="10" pointer-events="all"></path></g><g transform="translate(0.5,0.5)" style="visibility: visible;"><path d="M 995 435 L 958.12 435" fill="none" stroke="white" stroke-miterlimit="10" pointer-events="stroke" visibility="hidden" stroke-width="9"></path><path d="M 995 435 L 958.12 435" fill="none" stroke="#6482b9" stroke-miterlimit="10" stroke-dasharray="3 3" pointer-events="stroke"></path><path d="M 951.12 435 L 958.12 431.5 L 958.12 438.5 Z" fill="#6482b9" stroke="#6482b9" stroke-miterlimit="10" pointer-events="all"></path></g><g transform="translate(0.5,0.5)" style="visibility: visible;"><path d="M 489.5 401.99 L 470.5 288.01" fill="none" stroke="white" stroke-miterlimit="10" pointer-events="stroke" visibility="hidden" stroke-width="9"></path><path d="M 489.5 401.99 L 470.5 288.01" fill="none" stroke="#6482b9" stroke-miterlimit="10" stroke-dasharray="3 3" pointer-events="stroke"></path><path d="M 490.65 408.9 L 486.05 402.57 L 492.95 401.42 Z" fill="#6482b9" stroke="#6482b9" stroke-miterlimit="10" pointer-events="all"></path><path d="M 469.35 281.1 L 473.95 287.43 L 467.05 288.58 Z" fill="#6482b9" stroke="#6482b9" stroke-miterlimit="10" pointer-events="all"></path></g></g><g></g><g></g></g></svg>